<?xml version="1.0" standalone="no"?>
<!DOCTYPE svg PUBLIC "-//W3C//DTD SVG 20010904//EN"
 "http://www.w3.org/TR/2001/REC-SVG-20010904/DTD/svg10.dtd">
<svg version="1.0" xmlns="http://www.w3.org/2000/svg"
 width="1000.000000pt" height="1000.000000pt" viewBox="0 0 1000.000000 1000.000000"
 preserveAspectRatio="xMidYMid meet">
<metadata>
Created by potrace 1.11, written by Peter Selinger 2001-2013
</metadata>
<g transform="translate(0.000000,1000.000000) scale(0.100000,-0.100000)"
fill="#000000" stroke="none">
<path d="M4870 8989 c-2648 -373 -4818 -678 -4821 -679 -8 0 -19 -3418 -19
-5864 l0 -1999 113 -62 c63 -33 118 -60 123 -58 5 1 2186 309 4848 682 2661
374 4840 682 4842 684 3 2 8 1771 12 3931 l7 3927 -111 60 c-78 41 -122 59
-145 58 -19 -1 -2201 -307 -4849 -680z m-415 -911 c52 -27 137 -109 156 -152
10 -21 22 -26 83 -36 361 -58 694 -234 951 -502 132 -137 219 -261 308 -438
153 -303 219 -594 219 -965 1 -444 -113 -871 -334 -1258 -261 -455 -618 -802
-1053 -1022 l-129 -65 -13 -51 c-21 -82 -81 -186 -145 -250 -99 -99 -250 -158
-363 -143 -139 18 -242 90 -295 206 -18 40 -34 74 -35 75 -1 2 -48 8 -106 13
-291 30 -543 120 -780 278 -451 303 -733 794 -799 1391 -18 158 -8 490 19 647
44 260 116 482 231 719 206 421 509 771 893 1028 124 84 367 204 501 249 90
30 101 36 123 73 60 96 167 182 271 216 86 28 229 22 297 -13z m1821 -3733
c75 -37 1758 -1621 1796 -1691 111 -204 10 -492 -210 -601 -70 -35 -83 -38
-162 -38 -77 0 -93 3 -144 30 -43 23 -260 221 -912 834 -798 751 -857 809
-886 869 -75 152 -38 352 91 493 115 127 292 170 427 104z"/>
<path d="M4666 7628 c-3 -7 -9 -35 -16 -62 -10 -46 -49 -128 -87 -188 -17 -27
-17 -28 7 -52 14 -13 306 -288 650 -610 344 -322 648 -613 675 -646 l50 -62 3
39 c9 102 -40 369 -99 540 -180 523 -567 893 -1079 1033 -87 23 -99 24 -104 8z"/>
<path d="M3693 7526 c-269 -115 -474 -257 -699 -487 -128 -132 -238 -272 -323
-413 -63 -104 -169 -324 -205 -423 l-25 -71 87 86 c102 101 209 169 339 215
83 30 96 32 233 32 126 0 154 -3 212 -23 85 -30 170 -85 261 -169 40 -37 362
-340 716 -673 354 -333 664 -619 690 -637 103 -72 265 -97 389 -60 397 120
603 619 391 949 -21 32 -277 281 -708 686 -372 351 -684 643 -692 650 -13 10
-28 9 -80 -4 -228 -58 -427 75 -471 314 l-13 71 -102 -43z"/>
<path d="M2993 6229 c-127 -22 -239 -86 -342 -194 -107 -113 -175 -269 -188
-434 -10 -126 44 -293 123 -381 22 -24 302 -291 624 -593 322 -303 613 -577
647 -610 l61 -60 36 36 c212 213 539 187 656 -51 13 -26 24 -48 25 -50 5 -6
191 91 260 135 240 156 484 395 654 642 28 41 51 78 51 82 0 5 -36 -9 -81 -31
-115 -56 -205 -74 -342 -68 -213 9 -299 57 -587 329 -788 744 -1225 1151
-1265 1179 -89 61 -221 89 -332 69z"/>
<path d="M2371 5030 c45 -209 136 -435 245 -603 251 -387 679 -653 1119 -692
l70 -7 -50 49 c-27 27 -341 322 -697 657 -357 334 -648 611 -648 615 0 3 -14
22 -30 41 l-29 35 20 -95z"/>
</g>
</svg>
